# xmcd
#
# Track frame offsets: 
#        150
#        17605
#        34918
#        54530
#        64593
#        82339
#        112662
#        136860
#        177807
#        189757
#        206432
#        218666
#        231809
#        244855
#        269018
#        287298
#
# Disc length: 4216 seconds
#
# Revision: 0
# Processed by: cddbd v1.5.2PL0 Copyright (c) Steve Scherf et al.
# Submitted via: ExactAudioCopy v1.1
#
DISCID=d7107610
DTITLE=Raymond Van Het Groenewoud - Archivaris - CD 4
DYEAR=2018
DGENRE=Pop
TTITLE0=In The Groove
TTITLE1=Jouw Liefde
TTITLE2=Goesting (Live)
TTITLE3=Onze Nieuwe Single
TTITLE4=Het Gaat Om Ons (Live)
TTITLE5=L'Etranger C'Est Mon Ami (Live)
TTITLE6=Bij Jou Te Zijn (Live)
TTITLE7=Brussels By Night (Live @ AB)
TTITLE8=Moedertaal (Live @ AB)
TTITLE9=Weg Met Amerika
TTITLE10=Er Is Er Geen Eén Zoals Jij
TTITLE11=Het Wonder Voorbij
TTITLE12=Ik Zal Jouw Man Zijn (Live)
TTITLE13=Zanger Zonder Meer (Live)
TTITLE14=Aan De Meet
TTITLE15=Tot Morgen
EXTD=
EXTT0=
EXTT1=
EXTT2=
EXTT3=
EXTT4=
EXTT5=
EXTT6=
EXTT7=
EXTT8=
EXTT9=
EXTT10=
EXTT11=
EXTT12=
EXTT13=
EXTT14=
EXTT15=
PLAYORDER=
